<?xml version="1.0" encoding="utf-8"?>
<!-- Generator: Adobe Illustrator 19.2.1, SVG Export Plug-In . SVG Version: 6.00 Build 0)  -->
<svg version="1.1" id="Layer_1" xmlns="http://www.w3.org/2000/svg" xmlns:xlink="http://www.w3.org/1999/xlink" x="0px" y="0px"
	 viewBox="0 0 32 32" style="enable-background:new 0 0 32 32;" xml:space="preserve">
<style type="text/css">
	.st0{fill:#FFFFFF;stroke:#808184;stroke-width:1.9843;stroke-linecap:round;stroke-linejoin:round;stroke-miterlimit:10;}
	.st1{fill:#808184;}
</style>
<g>
	<path class="st0" d="M22.4,23H9.6C9.3,23,9,22.7,9,22.4V9.6C9,9.2,9.3,9,9.6,9h12.8C22.7,9,23,9.2,23,9.6v12.8
		C23,22.7,22.7,23,22.4,23z"/>
	<g>
		<path class="st1" d="M27.2,12.2h-1.8c-0.1,0-0.2-0.1-0.2-0.2v-1.8c0-0.1,0.1-0.2,0.2-0.2h1.8c0.1,0,0.2,0.1,0.2,0.2v1.8
			C27.4,12.1,27.3,12.2,27.2,12.2z"/>
		<path class="st1" d="M27.2,15.5h-1.8c-0.1,0-0.2-0.1-0.2-0.2v-1.8c0-0.1,0.1-0.2,0.2-0.2h1.8c0.1,0,0.2,0.1,0.2,0.2v1.8
			C27.4,15.4,27.3,15.5,27.2,15.5z"/>
		<path class="st1" d="M27.2,18.8h-1.8c-0.1,0-0.2-0.1-0.2-0.2v-1.8c0-0.1,0.1-0.2,0.2-0.2h1.8c0.1,0,0.2,0.1,0.2,0.2v1.8
			C27.4,18.7,27.3,18.8,27.2,18.8z"/>
		<path class="st1" d="M27.2,22.1h-1.8c-0.1,0-0.2-0.1-0.2-0.2v-1.8c0-0.1,0.1-0.2,0.2-0.2h1.8c0.1,0,0.2,0.1,0.2,0.2v1.8
			C27.4,22,27.3,22.1,27.2,22.1z"/>
	</g>
	<g>
		<path class="st1" d="M12.7,4.7v1.8c0,0.1-0.1,0.2-0.2,0.2h-1.8c-0.1,0-0.2-0.1-0.2-0.2V4.7c0-0.1,0.1-0.2,0.2-0.2h1.8
			C12.6,4.5,12.7,4.6,12.7,4.7z"/>
		<path class="st1" d="M16,4.7v1.8c0,0.1-0.1,0.2-0.2,0.2h-1.8c-0.1,0-0.2-0.1-0.2-0.2V4.7c0-0.1,0.1-0.2,0.2-0.2h1.8
			C15.9,4.5,16,4.6,16,4.7z"/>
		<path class="st1" d="M19.3,4.7v1.8c0,0.1-0.1,0.2-0.2,0.2h-1.8c-0.1,0-0.2-0.1-0.2-0.2V4.7c0-0.1,0.1-0.2,0.2-0.2h1.8
			C19.2,4.5,19.3,4.6,19.3,4.7z"/>
		<path class="st1" d="M22.6,4.7v1.8c0,0.1-0.1,0.2-0.2,0.2h-1.8c-0.1,0-0.2-0.1-0.2-0.2V4.7c0-0.1,0.1-0.2,0.2-0.2h1.8
			C22.5,4.5,22.6,4.6,22.6,4.7z"/>
	</g>
	<g>
		<path class="st1" d="M6.6,12.2H4.8c-0.1,0-0.2-0.1-0.2-0.2v-1.8c0-0.1,0.1-0.2,0.2-0.2h1.8c0.1,0,0.2,0.1,0.2,0.2v1.8
			C6.8,12.1,6.8,12.2,6.6,12.2z"/>
		<path class="st1" d="M6.6,15.5H4.8c-0.1,0-0.2-0.1-0.2-0.2v-1.8c0-0.1,0.1-0.2,0.2-0.2h1.8c0.1,0,0.2,0.1,0.2,0.2v1.8
			C6.8,15.4,6.8,15.5,6.6,15.5z"/>
		<path class="st1" d="M6.6,18.8H4.8c-0.1,0-0.2-0.1-0.2-0.2v-1.8c0-0.1,0.1-0.2,0.2-0.2h1.8c0.1,0,0.2,0.1,0.2,0.2v1.8
			C6.8,18.7,6.8,18.8,6.6,18.8z"/>
		<path class="st1" d="M6.6,22.1H4.8c-0.1,0-0.2-0.1-0.2-0.2v-1.8c0-0.1,0.1-0.2,0.2-0.2h1.8c0.1,0,0.2,0.1,0.2,0.2v1.8
			C6.8,22,6.8,22.1,6.6,22.1z"/>
	</g>
	<g>
		<path class="st1" d="M12.8,25.4v1.8c0,0.1-0.1,0.2-0.2,0.2h-1.8c-0.1,0-0.2-0.1-0.2-0.2v-1.8c0-0.1,0.1-0.2,0.2-0.2h1.8
			C12.7,25.2,12.8,25.3,12.8,25.4z"/>
		<path class="st1" d="M16.1,25.4v1.8c0,0.1-0.1,0.2-0.2,0.2h-1.8c-0.1,0-0.2-0.1-0.2-0.2v-1.8c0-0.1,0.1-0.2,0.2-0.2h1.8
			C16,25.2,16.1,25.3,16.1,25.4z"/>
		<path class="st1" d="M19.4,25.4v1.8c0,0.1-0.1,0.2-0.2,0.2h-1.8c-0.1,0-0.2-0.1-0.2-0.2v-1.8c0-0.1,0.1-0.2,0.2-0.2h1.8
			C19.3,25.2,19.4,25.3,19.4,25.4z"/>
		<path class="st1" d="M22.7,25.4v1.8c0,0.1-0.1,0.2-0.2,0.2h-1.8c-0.1,0-0.2-0.1-0.2-0.2v-1.8c0-0.1,0.1-0.2,0.2-0.2h1.8
			C22.6,25.2,22.7,25.3,22.7,25.4z"/>
	</g>
</g>
</svg>
